<svg xmlns="http://www.w3.org/2000/svg" viewBox="0 0 64 80" x="0px" y="0px"><path d="M32.48486,41.582l8.65674-4.79974a1.00075,1.00075,0,0,0,.51465-.87452V28.09229a1.0392,1.0392,0,0,0-.10486-.42829.97536.97536,0,0,0-.40979-.44623L32.48486,22.418a1.00116,1.00116,0,0,0-.96972,0l-8.65576,4.7998a1.04,1.04,0,0,0-.51514.87452v7.81542a1.0002,1.0002,0,0,0,.51514.87452l8.65576,4.7998A1.0441,1.0441,0,0,0,32.48486,41.582Zm7.17139-6.26312L33,39.00952v-5.529l6.65625-3.69025ZM31,39.00946l-6.65576-3.69061V29.7901L31,33.48047ZM25.40625,28.09229,32,24.436l6.59375,3.65625L32,31.74805Z"/><path d="M7.89648,35.89648A3.89134,3.89134,0,0,0,11.64606,33H17.459v5.80371a1.00022,1.00022,0,0,0,.51514.87451L31,46.90088v5.45306a3.89651,3.89651,0,1,0,2,0V46.90088l13.02637-7.22266a1.00075,1.00075,0,0,0,.51465-.87451V33h5.81243a3.89651,3.89651,0,1,0,0-2H46.541V25.19629a1.00075,1.00075,0,0,0-.51465-.87451L33,17.09912V11.64606a3.89651,3.89651,0,1,0-2,0v5.45306L17.97412,24.32178a1.00022,1.00022,0,0,0-.51514.87451V31H11.64606a3.88936,3.88936,0,1,0-3.74958,4.89648Zm48.207-5.793A1.89648,1.89648,0,1,1,54.207,32,1.89841,1.89841,0,0,1,56.10352,30.10352Zm-22.207,26A1.89648,1.89648,0,1,1,32,54.20752,1.89841,1.89841,0,0,1,33.89648,56.10352Zm-3.793-48.207A1.89648,1.89648,0,1,1,32,9.79248,1.89841,1.89841,0,0,1,30.10352,7.89648ZM19.459,25.78516,32,18.83154l12.541,6.95362V38.21484L32,45.16846,19.459,38.21484ZM7.89648,30.10352A1.89648,1.89648,0,1,1,6,32,1.8983,1.8983,0,0,1,7.89648,30.10352Z"/><text x="0" y="79" fill="#000000" font-size="5px" font-weight="bold" font-family="'Helvetica Neue', Helvetica, Arial-Unicode, Arial, Sans-serif">Created by Selot Lo</text><text x="0" y="84" fill="#000000" font-size="5px" font-weight="bold" font-family="'Helvetica Neue', Helvetica, Arial-Unicode, Arial, Sans-serif">from the Noun Project</text></svg>